<svg id="Camada_1" data-name="Camada 1" xmlns="http://www.w3.org/2000/svg" xmlns:xlink="http://www.w3.org/1999/xlink" viewBox="0 0 419.73 584.91"><defs><style>.cls-1{fill:#fff;}.cls-2{fill:#141414;}.cls-3{fill:#3d3d3d;}.cls-4{fill:url(#Gradiente_sem_nome);}.cls-5{fill:url(#Gradiente_sem_nome_2);}</style><linearGradient id="Gradiente_sem_nome" x1="83.81" y1="45.14" x2="83.81" y2="72.38" gradientTransform="translate(29.3 86.4) scale(2.71)" gradientUnits="userSpaceOnUse"><stop offset="0.07" stop-color="#fff"/><stop offset="1" stop-color="#fff" stop-opacity="0"/></linearGradient><linearGradient id="Gradiente_sem_nome_2" x1="27.51" y1="45.14" x2="27.51" y2="72.38" gradientTransform="matrix(-2.71, 0, 0, 2.71, 447.3, 86.4)" xlink:href="#Gradiente_sem_nome"/></defs><g id="svga-group-wrapper"><g id="svga-group-humanwrap-move"><g id="svga-group-humanwrap"><g id="svga-group-humanbody-back"><path id="SvgjsPath3770" class="cls-1" d="M254.29,325.57c0,52.25,9.21,119.32-27.08,140.5-36.29,21.38-86.35,30.59-102.31,59.57S113,594.13,113,594.13h404S519,543,503.28,522.69c-21.94-28.12-75.24-42-102-56.52S365,398.24,365,324.33l-110.67,1.24Z" transform="translate(-105.65 -14.92)"/></g><g id="svga-group-humanbody-front"><path id="SvgjsPath3771" d="M520,597.27H110.27l-.29-2.66c-.28-1.62-4.08-40.85,12.16-70.4,11.12-20,36.58-30.59,63.56-42,13.49-5.7,27.64-11.59,40.09-18.71,28.69-16.82,27.36-64.7,25.93-111-.28-9.5-.57-18.43-.57-27.08v-2.94l117-1v2.95c0,80.94,11.4,126.35,34.67,139.08,7.89,4.37,18.15,8.64,29.26,13.3,27.08,11.11,57.67,23.84,73.63,44.08,16.53,20.8,14.63,71.44,14.63,73.34l-.29,3Zm-404-5.89H514.11c0-11.12-.57-50.07-13.3-66.6-14.91-18.9-44.93-31.35-71.15-42.18-11.12-4.56-21.66-8.93-29.74-13.49-13.77-7.6-23.56-24.13-29.54-50.63-5.42-22.71-7.89-52.54-8.08-90.63l-104.5,1c0,7.6.29,15.39.57,23.85,1.33,48.16,2.66,97.66-29,116.37-12.73,7.32-26.79,13.3-40.57,19.19-25.93,10.83-50.63,21.09-60.61,39.24-13.58,23.18-12.73,54.34-12.25,63.84Z" transform="translate(-105.65 -14.92)"/><path id="SvgjsPath3772" d="M298.37,421.61a18.68,18.68,0,0,0,1.33,14.06c2.18,4.37,5.7,7.32,10.54,7.89a1.54,1.54,0,0,0,1.33-2.19c-4.37-6-9.5-11.4-10-19.19a1.65,1.65,0,0,0-3.23-.57Z" transform="translate(-105.65 -14.92)"/><path id="SvgjsPath3773" d="M348.72,512.81c23.84,1.33,49-1.9,72-7.88,1.9-.57,1.61-3.8-.57-3.52-23.85,2.95-47.88,5.42-71.73,8.93-1.33.38-.76,2.47.29,2.47Z" transform="translate(-105.65 -14.92)"/><path id="SvgjsPath3774" d="M215.05,499.32c10.26,2.47,20.62,5.13,31.16,7.6,9.79,2.19,20,5.42,30,5.7a1.67,1.67,0,0,0,.57-3.23c-9.5-3.8-20.33-4.56-30.3-6.74-10.26-1.9-20.33-3.52-30.59-5.42-1.43-.09-2,1.81-.86,2.09Z" transform="translate(-105.65 -14.92)"/></g><g id="svga-group-clothes-single"><path id="SvgjsPath9824" class="cls-2" d="M316.51,565s-54.91-40.66-64.79-51.11-33-47.22-33-47.22-41.23,17.58-56.53,23.09-37.33,21.94-41.7,33.53-11.5,23.09-12.07,45.6,0,28.6,0,28.6H522.57s1.61-42.28-6.65-58.81-4.37-21.94-38.48-41.7-63.74-28-63.74-28-28,42.85-45.6,57.67S316.51,565,316.51,565Z" transform="translate(-105.65 -14.92)"/><path id="SvgjsPath9825" d="M518.29,537.32a81.87,81.87,0,0,1-3.61-8.26c-4.56-10.93-7.5-18.15-35.81-34.68a310.49,310.49,0,0,0-64.32-28.31,2.58,2.58,0,0,0-2.94,1.14c-.29.48-28,42.66-45,57.1-15.11,12.73-42.94,32.3-49.78,37.14-9-6.74-54.25-40.47-62.89-49.59-9.6-10.16-32.4-46.45-32.68-46.83a2.63,2.63,0,0,0-3.33-1c-.38.19-41.32,17.58-56.43,23-15.77,5.61-38.57,22.52-43.32,35.06-.85,2.18-1.8,4.37-2.66,6.55-.47-.09-1,.57-.57.95l.1.1c-4.18,9.69-8.65,20.8-9.12,38.85-.57,22.42,0,28.6,0,28.88a2.68,2.68,0,0,0,2.66,2.47h414.1a2.63,2.63,0,0,0,2.66-2.56C525.23,595.65,526.75,554.23,518.29,537.32Zm-94.62-62.41c-.66,1-1.52,2.47-2.47,4.08a87.86,87.86,0,0,0-6.74-6.46c.09-.19.28-.47.38-.66C416.64,472.53,419.68,473.48,423.67,474.91ZM412,493.34a.1.1,0,0,0-.1-.1,35.51,35.51,0,0,0-7.5-4.94.42.42,0,0,0-.48.67,35.61,35.61,0,0,0,7.41,5h.19c-2.47,3.71-5,7.6-7.79,11.4a86.13,86.13,0,0,0-5.13-10.26c3-4,5.7-7.88,8.08-11.3,2.37,2.09,4.75,4.37,7.31,6.27a32.49,32.49,0,0,1-2,3.23ZM385.2,528.11a69,69,0,0,0-6-8.84c1.24-1.33,2.47-2.75,3.71-4.18.95,1.52,1.9,2.95,2.85,4.47A52.21,52.21,0,0,0,389,524.4c-.67.76-1.43,1.52-2.09,2.19-.48.38-1.05.95-1.71,1.52Zm4.75-4.85c-1.05-1.71-2.19-3.32-3.33-4.84-.95-1.43-2-2.85-2.94-4.18,1-1.24,2-2.38,3-3.61a39.61,39.61,0,0,0,2.18,4,23.28,23.28,0,0,0,4,5.22,34.16,34.16,0,0,1-2.94,3.42Zm3.8-4.46c-1.14-1.71-2.66-3.14-3.71-4.85a39.18,39.18,0,0,1-2.47-4.37l3.14-4c1.8,3.33,3.7,6.65,5.79,9.79C395.65,516.52,394.7,517.66,393.75,518.8Zm3.42-4.37a103,103,0,0,0-5.61-10c.95-1.23,2-2.47,2.85-3.8a108.54,108.54,0,0,0,5.7,9.69c-.95,1.43-1.9,2.76-2.94,4.09Zm3.89-5.23c-1.71-3.32-3.7-6.55-5.7-9.69.86-1.14,1.71-2.28,2.47-3.32a95,95,0,0,0,5.23,10.26c-.67.95-1.33,1.9-2,2.75Zm13.87-20.33c-2.28-2.18-4.94-4.08-7.41-6.08,1.05-1.42,1.9-2.75,2.76-4a33.06,33.06,0,0,0,7.31,5.89c-.85,1.33-1.71,2.76-2.66,4.18Zm3.23-5a89.91,89.91,0,0,1-7.12-6.08c1-1.62,2-2.95,2.75-4.09a84.19,84.19,0,0,0,6.75,6.37C419.78,481.18,419,482.51,418.16,483.84Zm-39.61,36.29a69.7,69.7,0,0,0,6,8.64q-1.71,1.43-3.7,3.14c-2-2.57-4.37-4.94-6.46-7.41,1.33-1.33,2.66-2.85,4.18-4.37Zm-8.65,8.45c1.14-1,2.38-2.09,3.61-3.23,2,2.47,4,5.13,6.18,7.51C374.27,537,367.34,542,359.93,547q-1.71-3.84-3.71-7.41C361.16,535.61,365.91,531.81,369.9,528.58Zm-31,32a51.83,51.83,0,0,0-2.85-6.27c1.62-1.24,3.33-2.47,5.13-3.71a18.63,18.63,0,0,0,4.37,5.7C343.3,557.84,341.12,559.17,338.93,560.6Zm7.79-5a42.77,42.77,0,0,1-4.46-5.79c2.28-1.62,4.56-3.42,6.93-5.13a17.46,17.46,0,0,0,4.09,6.65C351.09,552.81,348.91,554.14,346.72,555.56Zm7.6-4.94c-.76-1.23-1.8-2.47-2.47-3.7a31.91,31.91,0,0,1-1.52-3c1.62-1.24,3.23-2.38,4.75-3.61,1.14,2.47,2.38,5,3.71,7.31-1.52,1-3,2.09-4.47,3ZM217.71,470c4.94,7.88,23.28,36.48,32,45.69,10,10.55,62.89,49.78,65.17,51.4a2.89,2.89,0,0,0,3.13.09c.19-.09,7.32-5.13,16.72-11.87a45.36,45.36,0,0,0,3.23,5.89c-11.3,7.22-21,13.11-24.6,15.2-9.31-6.08-61.47-40.19-70.87-51.78-9.22-11.4-31-41.89-36.58-49.68,5.23-2.09,9.41-3.9,11.78-4.94Zm-15.1,9.59c-1.14-.57-2.28-1.14-3.52-1.71.57-.28,1.14-.47,1.81-.76.38.57,1,1.33,1.71,2.47ZM110.84,587.39c1.33,1.23,2.94,2.28,4.37,3.42,1.61,1.23,3.23,2.56,4.94,3.8H111a69.72,69.72,0,0,1-.19-7.22Zm409,7.22H121.67a70,70,0,0,0-6-4.94c-1.52-1.24-3.13-2.66-4.84-3.8v-4.94a178.46,178.46,0,0,0,17.67,11.78c.38.19.76-.29.47-.57a171.11,171.11,0,0,0-18.14-12.73c0-2.47.09-5.32.09-8.36,6.56,4,13.59,8.45,20.71,11.11.48.19.57-.47.29-.66-6.18-4.66-14-8.46-20.9-11.78v-.67c.09-2.28.19-4.37.38-6.46,6.17,3.8,12.54,8.17,19.28,10.74.38.09.76-.48.38-.67-5.79-4.56-12.92-7.79-19.57-11.21.29-2.28.57-4.46.86-6.55,3.13,1.9,6.36,3.7,9.59,5.51,3.71,2.09,7.41,4.56,11.5,5.89.28.09.66-.38.38-.57-3.23-2.76-7.32-4.56-11.12-6.56-3.32-1.8-6.74-3.61-10.16-5.32a72.5,72.5,0,0,1,1.8-7.5c5.61,3.51,11.5,7.41,17.58,9.78a.46.46,0,0,0,.47-.76c-5.22-4.08-11.68-7.22-17.67-10.26.57-1.71,1-3.32,1.71-4.94a107.94,107.94,0,0,0,18.72,10.07c.66.29.85-.66.47-1-5.51-4.09-12.35-7.32-18.71-10.36.76-1.9,1.52-3.7,2.18-5.51,1.9,1.43,3.9,2.66,5.89,3.9,3.52,2.09,7.51,4.75,11.59,5.41a.48.48,0,0,0,.38-.85c-3.23-2.47-7.5-4-11.11-6.08-2.09-1.24-4.18-2.47-6.18-3.8.1-.29.19-.48.29-.76.85-1.9,1.61-3.8,2.28-5.61a114.5,114.5,0,0,0,16.24,9.6.55.55,0,0,0,.57-.95,100.54,100.54,0,0,0-16.24-10,22.29,22.29,0,0,1,3.13-5.22,107.58,107.58,0,0,0,16.82,8.45c.47.19.76-.57.38-.85a105.21,105.21,0,0,0-16.63-8.46c1.14-1.42,2.47-2.85,3.9-4.37a71.41,71.41,0,0,0,18.71,10.55c.67.28,1.14-.86.48-1.24-6.27-3.23-12.45-6.36-18.43-10.16a46.36,46.36,0,0,1,4-3.61c5.41,4,11.3,7.79,17.57,10,.76.29,1.14-.85.48-1.23-5.7-3.33-11.4-6.27-16.82-9.79,1.62-1.33,3.33-2.66,5-3.89a59.69,59.69,0,0,0,15.86,9.4c.57.19.86-.66.38-1-4.75-3.42-10-6.27-14.91-9.4,1.9-1.33,3.8-2.66,5.79-3.8,6.37,3.42,13.21,7.6,20,9.69a.36.36,0,0,0,.28-.67c-5.6-4.08-12.63-6.84-19.09-9.78,2.18-1.33,4.37-2.47,6.46-3.61,5.79,3.42,11.59,7,17.76,9.5.67.28.86-.67.48-1.05-5.13-3.61-11-6.46-16.72-9.21a50.7,50.7,0,0,1,5-2.09c.86-.29,1.81-.67,2.85-1.05a162.63,162.63,0,0,0,17.2,9.88.62.62,0,0,0,.66-1,129.81,129.81,0,0,0-16.15-9.41c2.38-.95,5.13-2,8-3.13,3.14,1.61,6.37,3,9.41,4.75,4,2.09,7.69,4.56,11.78,6.46.47.19,1.14-.38.66-.76A75.36,75.36,0,0,0,177.05,487c2.09-.85,4.28-1.71,6.56-2.66,6.84,4.56,13.77,9.5,21.09,12.73.47.19,1-.38.57-.76-6-4.94-13.11-8.83-20-12.73l4.56-1.9c7,4.75,14.34,9.88,21.94,13.3.48.19,1.14-.47.67-.85-6.27-5.13-13.68-9.12-20.81-13.21,1.81-.76,3.61-1.52,5.32-2.18,2.66,1.52,5.32,3.13,8,4.65,8.36,11.69,25.27,35.06,33.06,44.75,10.83,13.39,71.06,52.25,73.53,53.86a2.8,2.8,0,0,0,2.85.1c2.47-1.52,61-36.58,76-51.59,13.68-13.68,34-46.83,38.1-53.48a321.71,321.71,0,0,1,47.21,22.32c26.79,15.58,29.36,21.76,33.54,32,1,2.47,2.18,5.32,3.8,8.55,7.12,13.2,6.93,45.41,6.74,54.72Z" transform="translate(-105.65 -14.92)"/></g><g id="svga-group-head"><g id="svga-group-ears-left-move"><g id="svga-group-ears-left"><path id="SvgjsPath3678" class="cls-1" d="M208.78,223.25a167,167,0,0,0-16-18.14c-7-6.46-9.21-6.46-12.44-2.47-3.52,4.08-7.89,24.6-6.75,33.53,1.05,9.22,9.79,23.56,14.06,31.64,4.56,8.07,8.93,18.14,13.78,17,5.13-1,11.87-12.44,15.39-20.8,3.32-8.27,1.71-29.36-8.08-40.76Z" transform="translate(-105.65 -14.92)"/><path id="SvgjsPath3679" d="M187.41,273c-.86-1.33-1.33-2.66-2.19-3.8l-1.61-2.66c-4.85-8.36-11.88-21.09-13-29.73-1-9.5,3.23-30.88,7.32-35.72,1.61-1.9,3.23-3.52,6-3.8,3.23-.29,6.27,1.9,10.55,6,4.37,3.8,9.5,9.79,15.67,17.58l.57.85c10.55,12.45,12.16,34.68,8.65,43.61-3,8.07-10.55,21.09-17.29,22.42h-1.33C195.29,288,191.49,280.63,187.41,273Zm19.47-48.16a3.84,3.84,0,0,1-.57-.86c-6-7.6-11.11-13.49-15.2-17-3.23-2.95-5.7-4.56-6.46-4.56-.57,0-1,.57-2.18,1.9-2.66,3.23-7,22.7-6.27,31.63.85,7.6,7.6,19.76,12.16,27.84l1.61,2.66c.86,1.33,1.33,2.66,2.19,3.8,2.47,4.56,6.74,12.44,8.93,11.87,3.23-.57,9.78-10,13.3-19.19C217.52,255.46,215.62,235.51,206.88,224.87Z" transform="translate(-105.65 -14.92)"/><path id="SvgjsPath3680" d="M179.62,240.83c-.86-6.27-1.33-21.09,2.18-25.94,6-7.88,16.25,17.29,18.72,25.18,0,.28.28.57.28.85.57.86-.28,1.9-1,1.62-1-.57-2.47-1.62-3.52-2.19-2.94-1.33-4.37,1.33-3.51,4.85,1,4.84,3.8,7.88,6,11.59.29.57,0,1-.57.85-4.37-2.47-9.5-12.16-8.36-17.86.86-5.41,5.13-4.84,8.36-2.18a80.58,80.58,0,0,0-6.74-13c-1.62-2.47-3.23-5.41-6-6-3.23-.57-2.66.85-3.23,4.84-2.18,13-.85,28.12,6.75,39.24.28.28,0,.57-.29.28a43,43,0,0,1-9-22.13Z" transform="translate(-105.65 -14.92)"/></g></g><g id="svga-group-ears-right-move"><g id="svga-group-ears-right"><path id="SvgjsPath3681" class="cls-1" d="M421,223.25a167,167,0,0,1,16-18.14c7-6.46,9.22-6.46,12.45-2.47s7.88,24.6,6.74,33.53c-1,9.22-9.78,23.56-14.06,31.64-4.56,8.07-8.93,18.14-13.77,17s-11.88-12.44-15.39-20.8c-3.33-8.27-1.71-29.36,8.07-40.76Z" transform="translate(-105.65 -14.92)"/><path id="SvgjsPath3682" d="M428.8,288h-1.33c-6.74-1.33-14.06-14.63-17.29-22.42-3.51-9.22-1.9-31.16,8.65-43.61l.57-.85c6.27-7.89,11.4-13.78,15.67-17.58s7.32-6,10.55-6c2.66.28,4.37,1.9,6,3.8,4.09,4.84,8.36,26.22,7.32,35.72-1.05,8.64-8.08,21.37-13,29.73l-1.61,2.66c-.86,1.33-1.33,2.47-2.19,3.8-3.8,7.41-7.6,14.73-13.3,14.73Zm-5.89-63.08c-8.64,10.54-10.54,30.3-7.6,38.19,3.52,9.21,10,18.71,13.3,19.19,2.19.57,6.46-7.32,8.93-11.88.86-1.33,1.33-2.66,2.19-3.8l1.61-2.66c4.56-8.07,11.4-20.33,12.16-27.83,1.05-8.93-3.51-28.41-6.27-31.64-1-1-1.61-1.9-2.18-1.9-.86,0-3.23,1.33-6.46,4.56-4.09,3.8-8.93,9.5-15.2,17C423.39,224.68,423.2,224.87,422.91,224.87Z" transform="translate(-105.65 -14.92)"/><path id="SvgjsPath3683" d="M450.18,240.83c.85-6.27,1.33-21.09-2.19-25.94-6-7.88-16.24,17.29-18.71,25.18,0,.28-.29.57-.29.85a1,1,0,0,0,1.05,1.62c1-.57,2.47-1.62,3.51-2.19,2.95-1.33,4.37,1.33,3.52,4.85-1.05,4.84-3.8,7.88-6,11.59-.28.57,0,1,.57.85,4.37-2.47,9.5-12.16,8.36-17.86-.85-5.41-5.13-4.84-8.36-2.18a80.63,80.63,0,0,1,6.75-13c1.61-2.47,3.23-5.41,6-6,3.23-.57,2.66.85,3.23,4.84,2.19,13,.86,28.12-6.74,39.24-.29.28,0,.57.28.28a43.08,43.08,0,0,0,9-22.13Z" transform="translate(-105.65 -14.92)"/></g></g><g id="svga-group-faceshape-wrap"><g id="svga-group-faceshape-single"><path id="SvgjsPath7302" class="cls-1" d="M433.46,189.15c-.29-8.93-.86-24.13-3.8-38.48-6.27-30.87-40.85-77.9-114.76-77.9s-98.52,36-109.35,62.8c-6.74,16.81-8.64,41.13-9.21,53.29,0,0-.29,77.71,4.56,103.36,6.74,37,18.14,78.76,85.5,92.25,0,0,21.37,27.07,50.63,1,0,0,72-13.49,89-74.38C437,271.42,433.46,189.15,433.46,189.15Z" transform="translate(-105.65 -14.92)"/><path id="SvgjsPath7303" d="M311.67,400.05H309c-12.73-1.05-21.38-9.79-24.13-12.45-66.88-13.77-79.61-54.15-86.83-94.43-4.85-25.74-4.56-101-4.56-103.93.57-13,2.47-37.33,9.21-54.43,17.86-43.8,54.44-65,112.29-65,33.25,0,62.8,9.78,84.74,28.12,17,14.06,29.55,33.82,33.06,52.25,2.95,14.91,3.52,30.87,3.8,39,.29,4.08,3.52,83.6-7.6,123.4-7,25.75-25.17,47.12-52.25,61.75a157.91,157.91,0,0,1-38.19,14.63c-9,7.32-17.95,11.12-26.88,11.12ZM199.38,189.15c0,2.47,0,77.9,4.37,102.6,7,38.47,19.19,77.14,83.12,89.87l1.05.28.85.86s8.08,10,20.62,11.11c8.36.86,17-2.66,25.74-10.26l.57-.57.86-.28c.85,0,70.39-13.78,86.64-72C434,271.8,430.51,190,430.51,189.24a206.36,206.36,0,0,0-3.8-37.9c-3.51-17.29-15.2-35.44-31.16-48.74C374.75,85,346.82,75.81,314.61,75.81c-54.91,0-89.87,20-106.59,61.18-6.27,16-8.17,39.43-8.64,52.16Z" transform="translate(-105.65 -14.92)"/></g></g><g id="svga-group-mouth-single-move"><g id="svga-group-mouth-single"><path id="SvgjsPath7974" d="M348.43,331.27c-1.33-.86-4.56-1-5.7-1.62A52.72,52.72,0,0,0,284.31,331c-.86.29-5.42.29-6.27.57-1.62.57,3.8,2.19,5.41,1.62a52.9,52.9,0,0,1,17.29-2.95c5.13,0,9.79,3.23,14.92,2.95,4.37-.29,8.36-2.95,12.73-3.52,6-.57,9.5-1.33,14.63,1.9,1.14,1.05,6.84.76,5.41-.28Zm-17.29-4.09a3.73,3.73,0,0,1-.57-1.61,14.34,14.34,0,0,1,1.33.57v.28c.29.29.29.57.29,1.05C331.71,327.18,331.43,326.9,331.14,327.18Zm-15.39-4.27h1.9v.28a51,51,0,0,0,1.9,6.46c-.57,0-.85.29-1,.29a60.23,60.23,0,0,0-2.76-7Zm3.23,0a2.14,2.14,0,0,1,1.33.28v.29l1.62,5.41c-.29,0-.86.29-1.05.29a48.71,48.71,0,0,1-1.9-6.27Zm2.66.47a9.77,9.77,0,0,1,1.33.29c.57,1.61,1,2.94,1.62,4.56-.57.28-1,.28-1.62.57a21.62,21.62,0,0,0-1.33-5.42Zm3,.57c.57,0,.86.29,1.33.29v.28a21,21,0,0,0,1.05,3.23c-.29,0-.86.29-1.05.29a16.78,16.78,0,0,0-1.33-4.09Zm2.95.57c.57.29,1,.29,1.61.57v.57a3.71,3.71,0,0,1,.57,1.9,2.1,2.1,0,0,0-1.33.29c-.28-1.43-.57-2.28-.85-3.33Zm5.7,1.9c.85.29,1.9.86,2.66,1.05a7.24,7.24,0,0,0-2.47-.29A1.13,1.13,0,0,1,333.33,326.42ZM304.07,328a24.06,24.06,0,0,0-1.9-3.8c.28,0,.85-.29,1-.29l1.62,4.09Zm-2.47-.29a20.5,20.5,0,0,1-1.33-2.94c.28,0,.57-.29.85-.29l1.62,3.23Zm-2.09,0a25.47,25.47,0,0,1-1.33-2.18c.28,0,.57-.29.85-.29.29.86.86,1.62,1.05,2.47Zm-2.47,0-.86-1.61c.29,0,.57-.29.86-.29.28.57.57,1,1,1.9Zm-2.47.57a2.22,2.22,0,0,1-.57-1c.28-.29.85-.29,1-.57.29.57.57.85.57,1.33C295.14,328,294.85,328,294.57,328.32Zm-2.95.48c0-.29-.28-.29-.28-.57.57-.29.85-.57,1.33-.57.28.28.28.57.57.85a3.21,3.21,0,0,0-1.62.29Zm13.3-5.13c.57,0,.86-.29,1.33-.29.57,1.9,1.33,3.8,1.9,5.42a2.71,2.71,0,0,0-1.33-.29A26.22,26.22,0,0,1,304.92,323.67Zm2.38-.29c.28,0,.85,0,1-.28.86,2.18,1.9,4.37,2.66,6.46-.57,0-1-.29-1.61-.29a41.33,41.33,0,0,0-2.09-5.89Zm2.47-.47h1.61v.28l2.47,7.32a2.1,2.1,0,0,1-1.33-.29C311.67,327.75,310.81,325.28,309.77,322.91Zm-19.48,5.89h0c-.28.28-.57.57-.85.57C289.72,329.08,290,329.08,290.29,328.8Zm25.18,1.42a72.28,72.28,0,0,1-2.47-7.31h1.61v.28a50.91,50.91,0,0,1,2.66,7Zm22.13,7a65.46,65.46,0,0,1-46.55-.57c-.85-.28-1,1.05-.28,1.33a67,67,0,0,0,47.12.57c.85-.28.57-1.61-.29-1.33Z" transform="translate(-105.65 -14.92)"/></g></g><g id="svga-group-eyes-left-move"><g id="svga-group-eyes-left"><g id="svga-group-eyesiriswrapper-left"><g id="svga-group-eyesiriscontrol-left"><g id="svga-group-eyesiris-left"><path id="SvgjsPath10225" d="M258.66,229.81a11.4,11.4,0,1,1-11.59,11.4A11.35,11.35,0,0,1,258.66,229.81Z" transform="translate(-105.65 -14.92)"/><path id="SvgjsPath10226" class="cls-1" d="M248.59,235.22a13.42,13.42,0,0,0-.57,8.36c.85,2.66,2.47,5.13,4.84,6.27a11.18,11.18,0,0,0,7.6.86,9.18,9.18,0,0,0,6-4.37,10.45,10.45,0,0,0,1.33-7.6,9.3,9.3,0,0,0-1.62-3.52,15.7,15.7,0,0,0-2.94-2.66,20,20,0,0,0-3.8-1.61,19,19,0,0,0-4.09-.29c-.28,0-.85,0-1,.29a1.63,1.63,0,0,1-1,.28c-.57.29-1.33.57-1.9.86-.85.95-1.9,2-2.75,3.13a11.7,11.7,0,0,1,2.66-3.51,21.89,21.89,0,0,1,1.9-1.33c.28-.29.85-.29,1-.57a1.59,1.59,0,0,1,1.05-.29,13.87,13.87,0,0,1,4.84-.28,16.3,16.3,0,0,1,4.56,1.33,9.18,9.18,0,0,1,3.8,2.94,10.73,10.73,0,0,1,2.19,4.56,12.47,12.47,0,0,1-1.62,9.79,18.6,18.6,0,0,1-3.51,3.8,13.14,13.14,0,0,1-4.56,1.9,12.78,12.78,0,0,1-9.5-1.62,15.42,15.42,0,0,1-3.52-3.51,11.76,11.76,0,0,1,.67-13.21Z" transform="translate(-105.65 -14.92)"/><path id="SvgjsPath10227" d="M258.66,254.41a13.57,13.57,0,0,1-7-2.18,12.55,12.55,0,0,1-3.52-3.52,12.41,12.41,0,0,1-1.61-4.56,13.57,13.57,0,0,1,1.9-9.21l1.61-2.47.57-.57v.28c.29-.28.57-.57.86-.57a5.72,5.72,0,0,1,2.18-1.33c.29-.28.86-.28,1-.57a1.59,1.59,0,0,1,1-.28,9.43,9.43,0,0,1,4.85-.29,30,30,0,0,1,4.56,1.33,13.79,13.79,0,0,1,4.08,3.23,9.78,9.78,0,0,1,2.19,4.56,12.86,12.86,0,0,1-1.62,10,10.51,10.51,0,0,1-3.51,3.8,19.3,19.3,0,0,1-4.85,2.18A24.58,24.58,0,0,0,258.66,254.41Zm-11.4-14.91a11.08,11.08,0,0,0,0,4.37,14.2,14.2,0,0,0,1.61,4.37,9.59,9.59,0,0,0,3.23,3.23,13.42,13.42,0,0,0,9.22,1.61,10.65,10.65,0,0,0,4.37-1.9,14.37,14.37,0,0,0,3.23-3.51,12.66,12.66,0,0,0,1.33-9.5,8.35,8.35,0,0,0-2.19-4.37,13.28,13.28,0,0,0-3.8-3,18.41,18.41,0,0,0-4.37-1.33,12.71,12.71,0,0,0-4.56.29c-.28,0-.85.28-1,.28-.29.29-.86.29-1,.57-.57.29-.85.57-1.33.86a3.64,3.64,0,0,1,1.62-.57c.28,0,.85-.29,1-.29s.86-.28,1.05-.28a7.51,7.51,0,0,1,4.37.28,36.86,36.86,0,0,1,4.08,1.62,15.41,15.41,0,0,1,2.95,2.66,9,9,0,0,1,1.61,3.8,11.53,11.53,0,0,1-1.33,7.88,9.13,9.13,0,0,1-6.46,4.56,11.85,11.85,0,0,1-8.07-1,10.88,10.88,0,0,1-5.13-6.46A13.94,13.94,0,0,1,247.26,239.5Zm1.61-4a12.42,12.42,0,0,0-.28,8.07,9.51,9.51,0,0,0,11.87,6.84,10,10,0,0,0,7.32-11.68,10.58,10.58,0,0,0-1.33-3.23,9.34,9.34,0,0,0-2.66-2.47,25.72,25.72,0,0,0-3.8-1.62,17.48,17.48,0,0,0-4.09-.28,1.74,1.74,0,0,0-1,.28c-.29,0-.57.29-1.05.29a12.11,12.11,0,0,1-1.9.85,17.88,17.88,0,0,0-3,2.95Z" transform="translate(-105.65 -14.92)"/><path id="SvgjsPath10228" class="cls-1" d="M258.85,234.94c-3.52-.86-7.89,3.51-7,7a2.21,2.21,0,0,0,1.9,1.61,2.35,2.35,0,0,0,2.18-1c.29-.29.29-.57.57-.86a1,1,0,0,0,.29-.57v-.28l.28-.29.29-.28s.57-.29.28-.29c.57-.28,1.05-.28,1.62-.57,2.09-.66,1.8-3.89-.38-4.46Z" transform="translate(-105.65 -14.92)"/></g></g></g><g id="svga-group-eyesfront-left"><path id="SvgjsPath9486" class="cls-1" d="M258.09,200.55a40.09,40.09,0,1,0,40.09,40.09A40,40,0,0,0,258.09,200.55Zm19.76,59.85c-1.9,0-4.09-4.37-4.09-4.37-14.63,3.8-29.54,5.41-38.66-2.19s-4.85-16.24-4.85-16.24c13-5.42,45.51-6.75,45.51-6.75,7.31,7.32,8.36,17.29,8.36,21.66-.1,4.56-4.09,7.89-6.27,7.89Z" transform="translate(-105.65 -14.92)"/><path id="SvgjsPath9487" d="M286.49,242.54l-1.61,1.61a23.25,23.25,0,0,0-1.33-3.8c.57-.28,1-.85,1.61-1v.57a1.63,1.63,0,0,0,.86,1.9h.57a1.38,1.38,0,0,0,1.33-1.05c0-.28,2.47-7.31-2.47-10.26s-33.06-.57-62.23,6.75a1.36,1.36,0,0,0,.57,2.66c1.9-.57,3.52-.86,5.13-1.33a22.33,22.33,0,0,0-.57,4.37l-1.61-1.62c-.29-.28-.57,0-.29.29a17.27,17.27,0,0,0,2.19,2.47,5.8,5.8,0,0,0,.85,2.94c-1.9-2.18-3.8-3.8-5.7-5.7-.28-.28-.85.29-.57.57a101.32,101.32,0,0,0,8.36,9.5,22.73,22.73,0,0,0,7.6,6.75,42.22,42.22,0,0,0,6.75,5.13c.28.28.85-.29.57-.57a26.84,26.84,0,0,0-3.23-2.66,24.58,24.58,0,0,0,8.07,1c8.65,0,18.43-2.66,23-3.8,1.33,3.8,3.52,4.37,4.85,4.37h1c3.52-.85,6.46-6.46,5.7-13.49a7.69,7.69,0,0,0-.57-2.47,8,8,0,0,0,2.19-2.18c.57-.48-.48-1.52-1.05-1Zm-1.61-8.46a4.68,4.68,0,0,1,.57,2.66,33.84,33.84,0,0,1-2.66,2.47,13.46,13.46,0,0,1-1.33-2.66C282.69,236.27,283.74,235.22,284.88,234.08Zm-3.8-1.61a12.48,12.48,0,0,1,2.66.57l-3.23,2.47a21.07,21.07,0,0,0-1.33-1.9A12,12,0,0,0,281.08,232.47Zm-1.9,26.22c-1.33.28-2.19-1.33-2.66-2.47a1.27,1.27,0,0,0,.57-1.62,1.45,1.45,0,0,0-1.9-.85c-.29,0-21.66,7-31.92,3.23-5.42-1.9-9.79-6-11.4-10.55-1.05-2.94-1.05-6,0-8.07v-.29c17.57-3.8,33.06-5.7,42.18-6,1,1,7.31,7.6,8.36,16,1.14,5.79-1.05,10.16-3.23,10.64ZM234,255.74a93.22,93.22,0,0,0-8.36-7.6c-.29-.28-.57,0-.29.29,1.05,1.33,2.47,2.47,3.52,3.8-.29.28-.57.57-.29,1,1.9,2.47,4.56,5.13,7.89,5.42.57,0,.85-.86.57-1.05a10.79,10.79,0,0,1-3-1.9Z" transform="translate(-105.65 -14.92)"/></g></g></g><g id="svga-group-eyes-right-move"><g id="svga-group-eyes-right"><g id="svga-group-eyesiriswrapper-right"><g id="svga-group-eyesiriscontrol-right"><g id="svga-group-eyesiris-right"><path id="SvgjsPath10229" d="M372.56,229.81A11.4,11.4,0,1,1,361,241.21,11.48,11.48,0,0,1,372.56,229.81Z" transform="translate(-105.65 -14.92)"/><path id="SvgjsPath10230" class="cls-1" d="M362.49,235.22a13.49,13.49,0,0,0-.57,8.36c.86,2.66,2.47,5.13,4.85,6.27a11.18,11.18,0,0,0,7.6.86,9.16,9.16,0,0,0,6-4.37,10.45,10.45,0,0,0,1.33-7.6,9.13,9.13,0,0,0-1.61-3.52,15.75,15.75,0,0,0-2.95-2.66,19.74,19.74,0,0,0-3.8-1.61,18.92,18.92,0,0,0-4.08-.29c-.29,0-.86,0-1.05.29a1.59,1.59,0,0,1-1,.28c-.57.29-1.33.57-1.9.86-.86.95-1.9,2-2.76,3.13a11.86,11.86,0,0,1,2.66-3.51,21.89,21.89,0,0,1,1.9-1.33c.29-.29.86-.29,1.05-.57s.85-.29,1-.29a13.93,13.93,0,0,1,4.85-.28,16.5,16.5,0,0,1,4.56,1.33,9.31,9.31,0,0,1,3.8,2.94,10.71,10.71,0,0,1,2.18,4.56,12.43,12.43,0,0,1-1.61,9.79,19,19,0,0,1-3.52,3.8,13.06,13.06,0,0,1-4.56,1.9,12.79,12.79,0,0,1-9.5-1.62,15.18,15.18,0,0,1-3.51-3.51,12.49,12.49,0,0,1-1.62-4.56c.19-3,.67-6.27,2.28-8.65Z" transform="translate(-105.65 -14.92)"/><path id="SvgjsPath10231" d="M372.56,254.41a13.6,13.6,0,0,1-7-2.18,11.17,11.17,0,0,1-5.13-8.08,13.63,13.63,0,0,1,1.9-9.21l1.62-2.47.57-.57v.28c.28-.28.57-.57.85-.57a5.68,5.68,0,0,1,2.19-1.33c.28-.28.85-.28,1-.57a1.63,1.63,0,0,1,1.05-.28,9.39,9.39,0,0,1,4.84-.29,29.62,29.62,0,0,1,4.56,1.33,13.71,13.71,0,0,1,4.09,3.23,9.66,9.66,0,0,1,2.18,4.56,12.82,12.82,0,0,1-1.61,10,10.62,10.62,0,0,1-3.52,3.8,19.22,19.22,0,0,1-4.84,2.18C374.46,254.13,373.61,254.41,372.56,254.41Zm-11.4-14.91a11.47,11.47,0,0,0,0,4.37,14.48,14.48,0,0,0,1.62,4.37,8.16,8.16,0,0,0,3.23,3.23,13.39,13.39,0,0,0,9.21,1.61,10.59,10.59,0,0,0,4.37-1.9,14.18,14.18,0,0,0,3.23-3.51,12.57,12.57,0,0,0,1.33-9.5A8.26,8.26,0,0,0,382,233.8a13.56,13.56,0,0,0-3.8-3,18.41,18.41,0,0,0-4.37-1.33,12.7,12.7,0,0,0-4.56.29c-.29,0-.86.28-1.05.28-.28.29-.85.29-1,.57a15.39,15.39,0,0,0-1.33.86,3.6,3.6,0,0,1,1.61-.57c.29,0,.86-.29,1.05-.29s.85-.28,1-.28a7.5,7.5,0,0,1,4.37.28,36.32,36.32,0,0,1,4.09,1.62,15.65,15.65,0,0,1,2.94,2.66,9,9,0,0,1,1.62,3.8,11.53,11.53,0,0,1-1.33,7.88,9.42,9.42,0,0,1-6.27,4.56,11.88,11.88,0,0,1-8.08-1,10.88,10.88,0,0,1-5.13-6.46,17.36,17.36,0,0,1-.57-4.18Zm1.62-4a12.36,12.36,0,0,0-.29,8.07,9.51,9.51,0,0,0,11.88,6.84,10,10,0,0,0,7.31-11.68,10.1,10.1,0,0,0-1.33-3.23,9.08,9.08,0,0,0-2.66-2.47,24.82,24.82,0,0,0-3.8-1.62,17.39,17.39,0,0,0-4.08-.28,1.77,1.77,0,0,0-1.05.28c-.28,0-.57.29-1,.29a12.54,12.54,0,0,1-1.9.85l-3,2.95Z" transform="translate(-105.65 -14.92)"/><path id="SvgjsPath10232" class="cls-1" d="M372.85,234.94c-3.52-.86-7.89,3.51-7,7a2.21,2.21,0,0,0,1.9,1.61,2.35,2.35,0,0,0,2.18-1c.29-.29.29-.57.57-.86a1,1,0,0,0,.29-.57v-.28l.28-.29.29-.28s.57-.29.28-.29c.57-.28,1.05-.28,1.62-.57,2-.66,1.71-3.89-.38-4.46Z" transform="translate(-105.65 -14.92)"/></g></g></g><g id="svga-group-eyesfront-right"><path id="SvgjsPath9488" class="cls-1" d="M371.71,200.55a40.09,40.09,0,1,0,40.09,40.09A40,40,0,0,0,371.71,200.55Zm22.51,53.29c-9.21,7.6-24.32,6-38.66,2.19,0,0-2.19,4.56-4.09,4.37-1.9,0-6.27-3.23-6.27-7.6,0-4.56,1.05-14.35,8.36-21.66,0,0,32.21,1.33,45.51,6.74,0-.28,4.37,8.36-4.85,16Z" transform="translate(-105.65 -14.92)"/><path id="SvgjsPath9491" d="M406.38,237.31c-29.26-7.31-57.38-9.78-62.22-6.74s-2.47,10-2.47,10.26c.28.57.57.85.85.85.86.57,1.33,1,2.19,1.62a19,19,0,0,0-1.05,4.84c-.85,7,2.19,12.73,5.7,13.49h1.05c1.33,0,3.51-.85,4.84-4.37,4.37,1.33,14.35,3.8,23,3.8a23.22,23.22,0,0,0,21.95-13.49,14.49,14.49,0,0,0,.57-8.64,49,49,0,0,1,5.13,1.33,1.17,1.17,0,0,0,1.61-1,2.62,2.62,0,0,0-1.14-1.9ZM345.49,233a1,1,0,0,1,.57-.29,2.48,2.48,0,0,0,1.61,1.62.8.8,0,0,0,1.05-1.05c-.29-.28-.57-.85-.86-1,.86,0,1.9-.29,3.23-.29a18.16,18.16,0,0,0-2.66,3.8c-.28,0-.28-.28-.57-.28a16.8,16.8,0,0,0-2.94-1.9c0-.29.28-.29.57-.57Zm-1.33,1.9c.85.57,1.61,1.33,2.47,1.9l.85.85c-.28.29-.28.86-.57,1.05a13,13,0,0,0-2.94-2.19,2.27,2.27,0,0,1,.19-1.61Zm1,7c-.28-.29-.85-.57-1-.86a1.14,1.14,0,0,0,.28-1.33,2.29,2.29,0,0,0-.28-1,11,11,0,0,0,1.9,1.61L345.2,242Zm52-3.52a10.8,10.8,0,0,1,0,8.08,20.14,20.14,0,0,1-11.4,10.54c-10.26,3.8-31.64-3.23-31.92-3.23a1.62,1.62,0,0,0-1.9.86,1.24,1.24,0,0,0,.57,1.61c-.57,1.05-1.33,2.66-2.66,2.47-1.9-.57-4.37-4.84-3.52-10.54,1.05-8.36,7.32-14.92,8.36-16a225.4,225.4,0,0,1,42.18,6A.2.2,0,0,1,397.17,238.45Zm-2.95,20.05c-3.51,1-7.88,4.37-11.59,3.51a.55.55,0,1,0-.28,1.05c2.18.57,3.8,0,5.7-.86,2.18-.85,4.37-1.9,6.46-2.94.19-.57,0-1.05-.29-.76Z" transform="translate(-105.65 -14.92)"/></g></g></g><g id="svga-group-eyebrows-left-move"><g id="svga-group-eyebrows-left-rotate"><g id="svga-group-eyebrows-left"><path id="SvgjsPath10609" class="cls-3" d="M213.14,219.42l32.39-36.51,47.89,15.25L287,210.08l-39.59-18.4Z" transform="translate(-105.65 -14.92)"/><path id="SvgjsPath10610" d="M212.1,220.38a1.51,1.51,0,0,0,2,.17l33.61-27.19,38.77,18a1.17,1.17,0,0,0,1,0,1.44,1.44,0,0,0,.86-.65l6.41-11.92a1.86,1.86,0,0,0,.12-1.3,1.17,1.17,0,0,0-1-.84L246,181.47a1.56,1.56,0,0,0-1.57.41l-32.4,36.51a1.51,1.51,0,0,0,0,2Zm28-24.62-5.39,1.65,6.05-6.79,3.42,1.87-4.08,3.27Zm4.93-4-3.62-2,2.88-3.29,2.17,4-1.43,1.2ZM256,193.92l.71-6,2.55.84-1.71,5.91Zm2.38,1.14,1.8-6L263,190l-3.63,5.63Zm2.06,1,3.63-5.64,4.39,1.41-2.65,6.87L260.39,196Zm10.82,5,3.52-7.33,1.74.58L274,202.33Zm3.92,1.84,4.81-7.51,3.37,1.07-2.82,8.89-5.36-2.45Zm6.4,3,4.65-6.71-2.59,7.67-2.06-1Zm7.7-7.5-4,6.15,2.25-6.74Zm-3.06-1-4,5.86,2.07-6.54ZM279,195l-3.36,5.21,1.72-5.81Zm-8.47-2.65-2.94,4,1.71-4.41Zm.8,6.15.93-5.56,1.54.5Zm-1.27,2-3.2-1.49,4.32-5.88-1.12,7.37Zm-15.06-7-1.43-.61-1-6.13,3.07,1Zm-2.47-1.14-1.54-.7-2.41-6.24,3,1,1,5.93Zm32.17,15,5.53-8.66,1.12.32-4.9,9.12Zm-36.61-17.1a2.3,2.3,0,0,0-.81-.14l-2.39-4.44,1-1.17,1.32.41,2.3,6.05Zm-22.08,17,7.45-8.39,4.61-1.4L226,207.18Z" transform="translate(-105.65 -14.92)"/></g></g></g><g id="svga-group-eyebrows-right-move"><g id="svga-group-eyebrows-right-rotate"><g id="svga-group-eyebrows-right"><path id="SvgjsPath10611" class="cls-3" d="M418,212.53l-38.31-30.37-44.51,23.36,8.43,10.56,35.74-25Z" transform="translate(-105.65 -14.92)"/><path id="SvgjsPath10612" d="M418.9,211.41,380.69,181a1.56,1.56,0,0,0-1.64-.18L334.54,204.2a1.61,1.61,0,0,0-.77,1,1.92,1.92,0,0,0,.27,1.27L342.47,217a1.57,1.57,0,0,0,1,.58,1.18,1.18,0,0,0,1-.23l35-24.53,37.87,21a1.43,1.43,0,0,0,2-.46,1.52,1.52,0,0,0-.36-2Zm-36-20.11,3.1-2.42,7.08,5.61-5.63-.67Zm-2.6-1.36,1.43-4.42,3.49,2.76L382,190.82l-1.73-.88Zm-10.19,5.87-2.73-5.48,2.45-1.23,1.67,5.82-1.39.89ZM368.31,197l-4.46-4.84,2.62-1.46,2.85,5.57-1,.73Zm-5.71,4-3.76-6.34,4.05-2.15,4.58,5Zm-7.47,5.21-3.81-7.55,1.59-.91,4.7,6.63-2.48,1.83Zm-5.8,4.09L344.92,202l3.11-1.61,6,6.55Zm-2.86,2-3.85-7.14,5.8,5.88-1.95,1.26ZM341,204.16l3.43,6.19L339.47,205Zm3.09-1.71,3.21,6-5-5.07,1.79-.94Zm6.41-3.26,2.72,5.37L349,200Zm7.42-4,2.46,4.11-3.68-3.44,1.22-.67Zm-4.13,2.26,1.41-.79L357,202l-3.21-4.5Zm2.52-.74,5.3,5-2.86,2-2.44-7Zm14.33-8.12,2.82-1.48.12,6.22-1.3.88Zm3.86-2,2.82-1.48-1.24,6.61-1.38,1-.2-6.11ZM343.9,214.14l-6.5-8.1,1-.54,6.94,7.64-1.48,1ZM377.07,191l1.27-6.41,1.32-.67,1.24,1-1.49,4.72a2.21,2.21,0,0,0-.78.21L377.07,191Zm12.62,4.17,4.8.58,8.77,7-13.57-7.57Z" transform="translate(-105.65 -14.92)"/></g></g></g><g id="svga-group-nose-single-move"><g id="svga-group-nose-single"><path id="SvgjsPath7711" class="cls-1" d="M335.51,273.89c3.52,2.66,7.13,7.79,5.42,10.92s-15.39,7.6-24.61,8.93-27-2.18-29.92-5.41-.19-8,1.14-10.55,11.87-23.56,14.82-27.17,11.11-5.6,18.14,2.85,15,20.43,15,20.43Z" transform="translate(-105.65 -14.92)"/><path id="SvgjsPath7712" d="M336.18,272.94c-1.33-1.05-2.57,1.23-1.33,2.18,4,3,8.07,8.46,1.9,11.69-3.61,1.9-7.89,3.13-11.78,4.37-9,2.66-17.67,2.28-26.7,0-.47-.1-1-.29-1.71-.38a19.27,19.27,0,0,0,2.28,0c1.05-.1,1-.29,1.9-.38a1.17,1.17,0,0,0,.86-1.43l-.29-.76a4,4,0,0,0-.28-1,10,10,0,0,0-2.09-2.38,9.2,9.2,0,0,0-6.84-2.66,4,4,0,0,0-3.71,2.85,3.78,3.78,0,0,0,1.14,3.8c-1.8-.95-3.13-2.18-3-4.08.19-3.9,3.33-8.08,5.13-11.5,4.28-8.17,8.46-16.34,12.73-24.51.76-1.42-1.42-2.75-2.18-1.33-3.14,6-6.27,12-9.31,18-2.66,5-5.7,10-7.79,15.2-1.52,3.61-1.71,7.79,2.09,10,2.09,1.24,4.65,1.62,6.93,2.28,2.85.76,5.7,1.52,8.65,2.09,11.78,2.19,22.61-.28,33.53-4.84,3-1.24,6.08-3,6.56-6.46.47-4.85-3.33-8.17-6.65-10.64Z" transform="translate(-105.65 -14.92)"/><path id="SvgjsPath7713" d="M323.92,290.32a15.84,15.84,0,0,0,4.75-.76,22.47,22.47,0,0,0,5-1.9c2.66-1.61,1.71-6.27-1.62-6.08a11.64,11.64,0,0,0-6.46,2.47,12.72,12.72,0,0,0-2.18,2.28c-.19.38-.19.48-.1.1l-.38.47a6.11,6.11,0,0,0-.66,1.33,1.72,1.72,0,0,0,1.61,2.09Z" transform="translate(-105.65 -14.92)"/></g></g><g id="svga-group-hair-front"><path id="SvgjsPath10973" class="cls-3" d="M188.26,200s7.6,13.77,9.79,34.67c.85,7.6,8.36,9.5,8.36,9.5s1.61-55.19,7-64.41,2.94-25.93,8.36-38.19,16.53-31.16,24.89-31.63,47.59,24.89,69.82,24.89,64.13-24.89,69.54-24.89,19.19,18.71,23.28,28.69c4.37,10,3.8,47.4,6.46,49.78,2.66,2.66,4.84,12.73,6,21.09s1.9,34.1,1.9,34.1,7.32-1.33,9.5-10.26,1.05-26.79,3.8-30,5.42-6.46,5.42-13.3.57-42.46-2.95-54.15c-3.8-11.59-12.73-36.57-20.61-41.42,0,0,1-9.5-8.93-19.19a107.08,107.08,0,0,0-55.2-28.12s-28.12-10-52-7.88-34.39-21.66-34.39-21.66-3.23,16,2.18,26.5c0,0-20.61-13.77-23.27-24.32A54.85,54.85,0,0,0,250.49,42s-8.93-6.74-11.12-14.34c0,0-4.37,8.93-1.61,18.71,0,0-9.5-1.61-11.12-7.88,0,0-13.77,22.23-9.5,49.78A38.81,38.81,0,0,0,206,102.6c-4.37,9.5-10.55,29.74-11.59,42.47-1.9,12.73-6.18,54.91-6.18,54.91Z" transform="translate(-105.65 -14.92)"/><path id="SvgjsPath10974" d="M441.82,135.09c-3.23-10.54-11.88-34.86-20.62-42V91.77c.29-.57.29-1.33-.28-1.61a31.18,31.18,0,0,0-9.5-16.53,107.79,107.79,0,0,0-56.15-28.69c-2.94-1-29.54-10-53-8.08-21.66,1.9-31.35-19.19-31.63-20.33A3.05,3.05,0,0,0,268,14.92a2.9,2.9,0,0,0-2.47,2.18c0,.57-1.9,10.26-.29,20C258.75,32,250.87,24.7,249.54,19.29a2.91,2.91,0,0,0-2.66-2.19,2.46,2.46,0,0,0-2.47,2.47,52.93,52.93,0,0,0,.85,13.49,17,17,0,0,1-3.23-6,2.64,2.64,0,0,0-2.47-1.9,3,3,0,0,0-2.66,1.61,30.81,30.81,0,0,0-2.66,16c-2.18-1-4.56-2.47-5.13-4.84a2.63,2.63,0,0,0-4.84-.57C223.7,38.19,210.49,60,214,87.4a40,40,0,0,0-10.83,14.35c-4.37,9.78-10.83,30-11.88,43.32-1,12.44-5.13,54.62-5.13,54.91a3.18,3.18,0,0,0,.29,1.61s7.31,13.49,9.5,33.54c1,9.21,10,11.59,10.54,11.59h.86a3.73,3.73,0,0,0,1.61-.57A3.2,3.2,0,0,0,210,244c.85-21.94,2.94-56.81,6.74-63.08a30.13,30.13,0,0,0,2.19-5.41,1.07,1.07,0,0,0,.28-.86,98.67,98.67,0,0,0,2.19-13.3c.85-6.46,1.33-13.49,3.8-18.9,6.27-14.06,16.53-29.55,22.42-30,2.66-.29,11.59,4.08,20.33,8.07,15.67,7.6,35.43,16.82,49.49,16.82,15.68,0,39.81-11.4,55.77-18.91,6-2.66,12.44-6,13.77-6,3.52.28,16.25,16.24,20.81,27.07,2.18,5.13,2.94,18.72,3.8,29.74,1,15.2,1.33,19.19,3.23,20.8,1.33,1.33,3.8,8.65,5.13,19.76,1,8.36,1.61,33.54,1.61,33.82a1.84,1.84,0,0,0,1.05,1.9,2,2,0,0,0,2.18.57c.29,0,9.22-1.61,11.59-12.16,1.05-4.37,1.33-10,1.62-15.67.28-4.56.85-11.88,1.61-13.3,2.66-3.23,6-7,6-14.92v-2.66c-.57-11.4-.29-41.23-3.8-52.25Zm-2.66,20.24c-4.09,11.59-9.22,24.6-21.66,28.69-.57-3.52-.86-9.79-1.33-14.92-.29-2.47-.29-5.13-.57-7.6a48.9,48.9,0,0,0,20-27.64c.29.85.57,1.9.86,2.66C438,140.7,438.59,147.82,439.16,155.33ZM434,128.54c-.29.28-.57.57-.57.85a46.67,46.67,0,0,1-18.15,28.12c-.57-5.7-1-11.11-1.9-15.2a40.77,40.77,0,0,0,19.19-17c.57,1,.86,2.18,1.43,3.23ZM415.88,92.06a73.4,73.4,0,0,1-21.66,12.44c-1.9-11.11,2.19-21.94,10.55-29.73a35.34,35.34,0,0,1,2.94,2.66C414,83.41,415.6,89,415.88,92.06Zm-30.59,14.82a1,1,0,0,0-.57.28,49.68,49.68,0,0,1-7.6-21.09c-.57-7,.57-21.09,8.36-24.89A106.72,106.72,0,0,1,402,72.58a35.76,35.76,0,0,0-11.11,33.06,53.72,53.72,0,0,1-5.61,1.24ZM348.72,48.17c-16.25,17.57,4.56,52.53,18.14,66.88-2.94,1.33-6.27,2.94-9.5,4.37a126.87,126.87,0,0,1-38.95-34.87C314.9,80,293.52,43.13,301.12,42.09h1.33c17.58-1.71,37.34,3.7,46.27,6.08Zm-54.34-6.46A132.33,132.33,0,0,0,353.94,121a72.49,72.49,0,0,1-7,3c-39-10-67.07-40.57-74.38-78.76a2.55,2.55,0,0,0,0-2.47l-.86-1.61a79.58,79.58,0,0,1-1-14.35c4.46,6,12.35,13.3,23.75,14.92Zm-26,4.56a1,1,0,0,0,.85.28,104,104,0,0,0,42,64.7A132.75,132.75,0,0,1,251.91,39c0-.28-.28-.57-.57-.85-.85-3-1.33-5.7-1.9-8.08,7,8.17,17.58,15.2,18.91,16.25ZM248,44.08a2.83,2.83,0,0,0,2.18.57,136.9,136.9,0,0,0,88.73,82.56,92.16,92.16,0,0,1-17.29,4.56C276.42,119.89,244.22,82.56,239.09,36c0-.29,0-.86.28-1A47.21,47.21,0,0,0,248,44.08ZM236.71,49H238a113.06,113.06,0,0,0,71.44,82.27c-11.59-2.18-26.5-8.93-38.66-14.91,0-.29-.29-.29-.57-.29a84.12,84.12,0,0,1-43.61-71.72c4.09,3.51,9.5,4.37,10.07,4.65Zm-13,.29A87.15,87.15,0,0,0,254,108.87a20.83,20.83,0,0,0-7.6-1.9h-1c-11.12-4.08-22-9.78-26.79-20.33-1.9-14.91,1.9-28.69,5.13-37.33Zm-24,78.47A49.58,49.58,0,0,0,217.24,147c-1.05,4.56-1.62,9.5-2.19,14.06-.28,3.51-.85,7-1.33,10.26a46.92,46.92,0,0,1-17.86-20c.29-2.47.29-4.37.57-6,.19-5,1.52-11.31,3.23-17.48ZM205.55,213a75,75,0,0,1-12.73-30.59c.29-1.9.29-3.51.57-5.41a62.84,62.84,0,0,0,14.06,17.57C206.69,200,206.12,206.53,205.55,213Zm-4.84,21.09c-2.19-18.71-8.08-31.63-9.79-34.86,0-1.05.29-3.52.57-6.75A74.9,74.9,0,0,0,205,217.93c-.57,8.65-1,16.82-1,21.38A6.91,6.91,0,0,1,200.71,234.08ZM208,190.29a56.51,56.51,0,0,1-14.06-20c.57-4.56.86-9.21,1.33-13.3a49.44,49.44,0,0,0,17.58,17.58,17,17,0,0,1-1.62,3.51C209.92,180.5,208.78,184.87,208,190.29Zm11.31-49.78a10.61,10.61,0,0,0-1.05,3.23A43.28,43.28,0,0,1,201,122.93l2.47-8.07a43.8,43.8,0,0,0,21.09,14.91C221.51,135.28,219.61,139.94,219.33,140.51Zm7.12-13.87a39.57,39.57,0,0,1-21.66-16c1.05-2.66,1.9-5.13,3-7.32a29.68,29.68,0,0,1,9.5-12.44c5.13,8.93,14.34,14.34,24.13,18.14-5.8,3.52-10.93,10.83-14.92,17.58Zm143.64-12.92c-11.87-12.16-35.15-48.17-17.86-64.13a2.55,2.55,0,0,0,1,.29h.57A89.28,89.28,0,0,1,382,59.38c-5.13,3.8-7,11.11-7.89,17.29-1.61,11.4,1.33,22.42,7.32,31.92C378.74,109.63,375.22,111.25,370.09,113.72Zm20.62-4.66a72,72,0,0,0,25.46-13l.85.85c1.9,1,3.8,3.8,6,7.32A48.29,48.29,0,0,1,401.63,121,45.57,45.57,0,0,0,390.71,109.06Zm13.2,14.63A51.84,51.84,0,0,0,425,107.45a109.11,109.11,0,0,1,6.27,13.77,35.44,35.44,0,0,1-18.71,17.86c-.29-.57-.29-1-.57-1.61-1.24-3.52-4.56-8.65-8.08-13.78Zm14.35,63.37c11.11-3.52,17-13,21.09-23.28,0,4.37.28,8.36.28,12.16A37.07,37.07,0,0,1,422.34,197c-1-3.8-2.47-7.88-4.08-10Zm12.16,45.69a10.65,10.65,0,0,1-4.37,6.75c0-3.8-.29-9.79-.57-15.39a22.43,22.43,0,0,0,6.46-5.13c-.38,5.13-.67,10.26-1.52,13.77ZM439.63,190c0,5.7-2.18,8.36-4.84,11.59-1.33,1.62-1.9,5.13-2.47,10.26a18.33,18.33,0,0,1-7,8.65c-.29-4.37-.57-8.36-.86-11.12-.28-2.18-.85-5.13-1.33-8.36a40.73,40.73,0,0,0,16.53-16.53V190Z" transform="translate(-105.65 -14.92)"/></g><g id="svga-group-glasses-single-move"><g id="svga-group-glasses-single"><path id="SvgjsPath9584" class="cls-4" d="M254.38,208.62c-10-.09-23.94,2.09-31.82,11.12s-9.31,20.23-7.7,32.68,7.13,21.09,18,28,28.79,6.65,33.92,4.66,17-4.47,25.93-20.62,4.85-28.78,1.9-35.05S279.46,208.91,254.38,208.62Z" transform="translate(-105.65 -14.92)"/><path id="SvgjsPath9588" class="cls-5" d="M374.65,208.62c10-.09,23.94,2.09,31.83,11.12s9.31,20.23,7.69,32.68-7.12,21.09-18.05,28-28.78,6.65-33.91,4.66-17-4.47-25.94-20.62-4.84-28.78-1.9-35.05,15.11-20.52,40.28-20.81Z" transform="translate(-105.65 -14.92)"/><path id="SvgjsPath9592" d="M427.76,214.7s-14.73-.47-24.89-4.56-22.61-5.6-35.82-4.37A50.86,50.86,0,0,0,343.49,214c-3,1.8-10,5-16,4.18a95.34,95.34,0,0,0-10.07-1.05h-5.89a95.34,95.34,0,0,0-10.07,1.05c-5.89.85-12.92-2.38-16-4.18A50.1,50.1,0,0,0,262,205.77c-13.2-1.23-25.65.29-35.81,4.37s-24.89,4.56-24.89,4.56c-.48,1.81.28,10.93.28,11.69s7.13-.48,8.17,8.17.29,27.74,12.73,40.18,24.23,15.11,37.91,14.06c14.72-1.14,26.12-10.26,33.53-21.47s11.69-24.89,11.69-29.64c0,0-5.7-2.85-4.28-7.22,1.24-3.89,10.45-3.8,10.45-3.8h5.89s9.22-.09,10.45,3.8c1.43,4.37-4.27,7.22-4.27,7.22,0,4.85,4.27,18.53,11.68,29.64s18.81,20.33,33.54,21.47c13.68,1.05,25.46-1.61,37.9-14.06s11.69-31.54,12.73-40.18,8.17-7.32,8.17-8.17c-.38-.76.38-9.88-.09-11.69ZM283.55,273.41c-6.65,6.37-19.29,13.21-34.11,10.64s-26.69-10.45-31.25-24.41-2.76-28.5,4.37-37.15,18.05-13,33.25-12.44c7.31.28,12.44.76,22.13,6.36s17.29,13.21,18.34,26.41S290.2,267.14,283.55,273.41Zm127.2-13.68c-4.56,14-16.53,21.85-31.25,24.42s-27.46-4.37-34.11-10.64-13.68-17.29-12.73-30.5,8.65-20.8,18.34-26.41,14.72-6.08,22.13-6.36c15.2-.48,26.13,3.8,33.25,12.44s8.93,23.09,4.37,37.05Z" transform="translate(-105.65 -14.92)"/></g></g></g></g></g></g></svg>